<?xml version="1.0" encoding="utf-8"?>
<!-- Generator: Adobe Illustrator 24.2.3, SVG Export Plug-In . SVG Version: 6.00 Build 0)  -->
<svg version="1.1" id="новое-заливки" xmlns="http://www.w3.org/2000/svg" xmlns:xlink="http://www.w3.org/1999/xlink"
	 x="0px" y="0px" viewBox="0 0 44.7 50" style="enable-background:new 0 0 44.7 50;" xml:space="preserve">
<style type="text/css">
	.st0{fill:#3D3DA5;}
	.st1{fill:#ACACFC;}
	.st2{fill:#6262ED;}
	.st3{fill:#FFFFFF;}
	.st4{fill:none;}
</style>
<g>
	<path class="st0" d="M44.7,15v19.9c0,1.8-1,3.5-2.6,4.4l-8.7,5l-8.5,4.9c-1.6,0.9-3.6,0.9-5.2,0l-8.7-4.9l-8.2-4.9
		c-1.7-0.9-2.8-2.6-2.9-4.6V15.1c0-1.9,1-3.6,2.6-4.6l8.7-5l8.5-4.9c1.6-0.9,3.6-0.9,5.2,0l8.6,5l8.2,4.7C43.5,11.3,44.6,13,44.7,15
		z M37.7,37.2c0.6,0,1.2-0.2,1.7-0.5c1.6-0.9,2.1-3,1.2-4.6L38.8,29c2.3-8.9-3-18-11.8-20.5l-1.8-3.1c-0.3-0.5-0.7-0.9-1.2-1.2
		c-1.6-0.9-3.7-0.4-4.6,1.2l-1.8,3.1C8.8,11,3.6,20.1,5.8,29L4,32.2c-0.3,0.5-0.4,1.1-0.4,1.6c0,1.9,1.5,3.4,3.3,3.4h3.6
		c6.6,6.3,17,6.3,23.6,0L37.7,37.2L37.7,37.2z"/>
	<path class="st1" d="M27,8.5c-3.1-0.9-6.3-0.9-9.4,0l1.8-3.1c0.3-0.5,0.7-0.9,1.2-1.2c1.6-0.9,3.7-0.4,4.6,1.2L27,8.5L27,8.5z"/>
	<path class="st1" d="M10.5,37.1H6.9c-0.6,0-1.1-0.2-1.6-0.4c-1.6-0.9-2.2-3-1.3-4.6L5.8,29C6.6,32.1,8.2,34.9,10.5,37.1z"/>
	<path class="st1" d="M40.6,32.1c0.3,0.5,0.4,1.1,0.4,1.6c0,1.9-1.5,3.4-3.3,3.4h-3.6c2.3-2.2,3.9-5,4.7-8.2L40.6,32.1z"/>
	<path class="st2" d="M17.6,8.5L5.8,29c-0.3-1.3-0.5-2.7-0.5-4.1C5.3,17.3,10.3,10.6,17.6,8.5z"/>
	<path class="st2" d="M10.5,37.2h23.6c-3.2,3-7.4,4.8-11.8,4.8C17.9,41.9,13.7,40.2,10.5,37.2z"/>
	<path class="st2" d="M38.8,29L27,8.5c7.3,2.1,12.4,8.8,12.4,16.4C39.4,26.3,39.2,27.6,38.8,29z"/>
	<path class="st3" d="M34.1,37.1H10.5c-2.3-2.2-3.9-5-4.7-8.2L17.6,8.5c3.1-0.9,6.3-0.9,9.4,0L38.8,29
		C38.1,32.1,36.4,34.9,34.1,37.1z"/>
	<path class="st0" d="M24.3,22l2.8-1.6c0.3-0.2,0.5-0.5,0.5-0.8v-3.3c0-0.3-0.2-0.6-0.5-0.8l-2.8-1.6c-0.3-0.2-0.7-0.2-1,0l-2.8,1.6
		c-0.3,0.2-0.5,0.5-0.5,0.8v3.3c0,0.3,0.2,0.6,0.5,0.8l2.8,1.6C23.7,22.2,24,22.2,24.3,22z M21.5,19.1v-2.5c0-0.1,0.1-0.2,0.1-0.2
		l2.1-1.2c0.1-0.1,0.2-0.1,0.3,0l2.1,1.3c0.1,0,0.1,0.1,0.1,0.2v2.5c0,0.1-0.1,0.2-0.1,0.2L24,20.6c-0.1,0.1-0.2,0.1-0.3,0l-2.1-1.2
		C21.5,19.3,21.5,19.2,21.5,19.1z"/>
	<path class="st0" d="M28.5,28.1l2.1-1.3c0.3-0.2,0.5-0.5,0.5-0.8v-2.5c0-0.3-0.2-0.6-0.5-0.8l-2.1-1.3c-0.3-0.2-0.7-0.2-1,0
		l-2.1,1.3c-0.3,0.2-0.5,0.5-0.5,0.8V26c0,0.3,0.2,0.6,0.5,0.8l2.1,1.3C27.8,28.3,28.2,28.3,28.5,28.1z M26.2,25.7v-1.8
		c0-0.1,0.1-0.2,0.1-0.2l1.5-0.9c0.1,0,0.2,0,0.3,0l1.5,0.9c0.1,0,0.1,0.1,0.1,0.2v1.8c0,0.1-0.1,0.2-0.1,0.2l-1.5,0.9
		c-0.1,0-0.2,0-0.3,0l-1.5-0.9C26.3,25.9,26.2,25.8,26.2,25.7z"/>
	<path class="st0" d="M18.8,32.9l4.5-2.7c0.3-0.2,0.5-0.5,0.5-0.8v-5.3c0-0.3-0.2-0.6-0.5-0.8l-4.5-2.7c-0.3-0.2-0.7-0.2-1,0
		l-4.5,2.7c-0.3,0.2-0.5,0.5-0.5,0.8v5.3c0,0.3,0.2,0.6,0.5,0.8l4.5,2.7C18.1,33.1,18.5,33.1,18.8,32.9z M14.2,29v-4.5
		c0-0.1,0.1-0.2,0.1-0.2l3.8-2.3c0.1,0,0.2,0,0.3,0l3.8,2.2c0.1,0,0.1,0.1,0.1,0.2V29c0,0.1,0,0.2-0.1,0.3l-3.8,2.3
		c-0.1,0-0.2,0-0.3,0l-3.8-2.3C14.2,29.2,14.2,29.1,14.2,29z"/>
	<rect x="0" y="0.2" class="st4" width="44.7" height="49.8"/>
</g>
<g id="JAICP">
</g>
</svg>
