<?xml version="1.0" encoding="utf-8"?>
<!-- Generator: Adobe Illustrator 24.0.0, SVG Export Plug-In . SVG Version: 6.00 Build 0)  -->
<svg version="1.1" id="Layer_1" xmlns="http://www.w3.org/2000/svg" xmlns:xlink="http://www.w3.org/1999/xlink" x="0px" y="0px"
	 viewBox="0 0 268.2 299.2" style="enable-background:new 0 0 268.2 299.2;" xml:space="preserve">
<style type="text/css">
	.st0{fill-rule:evenodd;clip-rule:evenodd;fill:#FE010D;}
	.st1{fill-rule:evenodd;clip-rule:evenodd;fill:#F6D0D2;}
	.st2{fill-rule:evenodd;clip-rule:evenodd;fill:#FD7775;}
	.st3{fill-rule:evenodd;clip-rule:evenodd;fill:#FEFEFE;}
	.st4{fill:#FD7775;}
</style>
<title>caila_sign</title>
<path class="st0" d="M197.8,261.5L148.6,290c-9.2,5.5-20.8,5.6-30.1,0.2l-49.6-28.6L21.2,234c-10.3-5-16.8-15.4-16.8-26.8V92.7l0,0
	c0-10.6,5.7-20.4,14.8-25.7l49.6-28.6l49.3-28.4c9.2-5.5,20.8-5.6,30.1-0.2l49.6,28.6l47.7,27.5c10.3,5,16.8,15.4,16.8,26.8v114.6
	l0,0c0,10.6-5.6,20.4-14.8,25.7L197.8,261.5z"/>
<path class="st1" d="M194.7,119l-44.5-77.1c-5.2-9.3-16.9-12.5-26.2-7.3c-3,1.7-5.5,4.1-7.2,7.1L72.1,119l0,0v0.1l-43.8,75.7
	c-2.3,3.3-3.6,7.2-3.5,11.2c0,10.6,8.6,19.2,19.3,19.3h178.6v-0.1c10.6,0,19.2-8.6,19.2-19.2c0-3.3-0.9-6.6-2.5-9.5l-44.1-76.3
	C195.1,119.7,194.9,119.3,194.7,119z"/>
<path class="st2" d="M201.8,225.2c-38.1,37-98.8,37-136.9,0H201.8z"/>
<path class="st2" d="M72.2,119.1L38,178.3c-1.9-7.7-2.9-15.6-2.8-23.6C35.1,111,64,72.5,106,60.3L72.2,119.1L72.2,119.1L72.2,119.1
	L72.2,119.1z"/>
<path class="st2" d="M228.8,178.2l-33.6-58.1l-0.5-1.1l-33.9-58.7C211.4,75.1,241.3,127,228.8,178.2L228.8,178.2z"/>
<path class="st3" d="M195.2,120.1l33.6,58.1c-4.4,17.9-13.8,34.2-27,47H64.9c-13.2-12.8-22.6-29.1-27-46.9L72.1,119V119l0,0
	L106,60.3c17.9-5.1,36.9-5.1,54.8,0l33.9,58.7L195.2,120.1L195.2,120.1z"/>
<circle class="st4" cx="116.4" cy="131.4" r="11.7"/>
<circle class="st4" cx="152.2" cy="131.4" r="11.7"/>
<circle class="st4" cx="100.1" cy="164.2" r="11.7"/>
<circle class="st4" cx="134.3" cy="164.2" r="11.7"/>
<circle class="st4" cx="168.5" cy="164.2" r="11.7"/>
</svg>
