<?xml version="1.0" standalone="no"?>
<!DOCTYPE svg PUBLIC "-//W3C//DTD SVG 20010904//EN"
 "http://www.w3.org/TR/2001/REC-SVG-20010904/DTD/svg10.dtd">
<svg version="1.0" xmlns="http://www.w3.org/2000/svg"
 width="512.000000pt" height="512.000000pt" viewBox="0 0 512.000000 512.000000"
 preserveAspectRatio="xMidYMid meet">
<metadata>
Created by potrace 1.11, written by Peter Selinger 2001-2013
</metadata>
<g transform="translate(0.000000,512.000000) scale(0.100000,-0.100000)"
fill="#000000" stroke="none">
<path d="M2420 4787 c-53 -18 -172 -78 -250 -127 -8 -5 -78 -46 -155 -90 -77
-44 -147 -85 -155 -90 -8 -6 -22 -13 -30 -17 -8 -4 -64 -35 -123 -70 -60 -35
-127 -74 -150 -87 -23 -13 -204 -117 -402 -231 -198 -115 -373 -215 -389 -223
-46 -24 -141 -124 -169 -177 -60 -119 -57 -70 -57 -1122 1 -924 1 -964 20
-1018 45 -131 123 -225 239 -286 31 -16 63 -34 71 -39 8 -5 80 -47 160 -93 80
-46 240 -138 355 -204 116 -67 224 -129 242 -140 18 -10 98 -56 179 -103 81
-47 163 -94 183 -105 20 -11 52 -30 71 -41 19 -12 55 -33 80 -46 25 -14 84
-48 133 -76 109 -64 162 -82 254 -89 135 -10 164 1 518 207 88 51 176 102 195
113 113 63 374 215 427 248 34 22 65 39 68 39 3 0 113 63 245 140 132 77 244
140 250 140 5 0 10 5 10 10 0 6 4 10 9 10 5 0 38 17 73 37 125 75 214 194 238
322 7 35 10 390 10 995 -1 1009 0 987 -52 1094 -30 63 -140 170 -214 208 -32
17 -147 82 -254 144 -107 62 -220 126 -250 143 -30 16 -66 38 -80 47 -14 9
-52 32 -85 50 -76 42 -87 48 -280 160 -88 51 -176 102 -195 113 -19 10 -107
61 -195 112 -203 117 -239 135 -296 150 -73 20 -175 16 -249 -8z"/>
</g>
</svg>
